<svg width="886" height="627" viewBox="0 0 886 627" fill="none" xmlns="http://www.w3.org/2000/svg">
<g filter="url(#filter0_d)">
<path d="M511 144H90.9974C40.7445 144 0 184.514 0 234.498C0 284.481 40.7445 325 90.9974 325H511C460.743 325 420.003 284.481 420.003 234.498C420.003 184.514 460.743 144 511 144Z" fill="white"/>
</g>
<g filter="url(#filter1_d)">
<path d="M511 435H90.9974C40.7445 435 0 475.745 0 526.004C0 576.258 40.7445 617 90.9974 617H511C460.743 617 420.003 576.258 420.003 526.004C420.003 475.745 460.743 435 511 435Z" fill="white"/>
</g>
<g filter="url(#filter2_d)">
<path d="M366 469H785.18C835.339 469 876 428.482 876 378.504C876 328.522 835.339 288 785.18 288H366C416.159 288 456.816 328.522 456.816 378.504C456.816 428.482 416.159 469 366 469Z" fill="white"/>
</g>
<path d="M367.002 288C317.295 288 277 328.522 277 378.504C277 428.482 317.295 469 367.002 469C416.709 469 457 428.482 457 378.504C457 328.522 416.709 288 367.002 288Z" fill="#FF2D55"/>
<g filter="url(#filter3_d)">
<path d="M366 182H785.18C835.339 182 876 141.258 876 91.0041C876 40.7415 835.339 0 785.18 0H366C416.159 0 456.816 40.7415 456.816 91.0041C456.816 141.258 416.159 182 366 182Z" fill="white"/>
</g>
<path d="M367.002 182C317.295 182 277 141.258 277 91.0041C277 40.7456 317.295 0 367.002 0C416.709 0 457 40.7456 457 91.0041C457 141.258 416.709 182 367.002 182Z" fill="#FF2D55"/>
<path d="M341.081 166.844V166.431H338.604V166.018H335.713V165.605H334.061V165.192H332.409V164.779H330.757V164.366H329.106V163.953H328.28V163.54H327.041V163.127H325.802V162.714H324.563V162.302H323.737V161.889H322.911V161.476H322.085V161.063H321.26V160.65H320.434V160.237H319.608V159.824H318.782V159.411H317.956V158.998H317.13V158.585H316.717V158.172H315.891V157.759H315.065V157.346H314.652V156.933H313.826V156.52H313.414V156.107H312.588V155.694H312.175V155.281H311.762V154.868H310.936V154.455H310.523V154.043H310.11V153.63H309.284V153.217H308.871V152.804H308.458V152.391H308.045V151.978H307.632V151.565H307.219V151.152H306.806V150.739H306.393V150.326H305.98V149.913H305.154V149.5H304.742V148.674H304.329V148.261H303.916V147.848H303.503V147.435H303.09V147.022H302.677V146.609H302.264V146.196H301.851V145.783H301.438V145.371H301.025V144.545H300.612V144.132H300.199V143.719H299.786V142.893H299.373V142.48H298.96V142.067H298.547V141.241H298.134V140.828H297.721V140.002H297.308V139.589H296.895V138.763H296.483V138.35H296.07V137.524H295.657V136.699H295.244V136.286H294.831V135.46H294.418V134.634H294.005V133.808H293.592V132.982H293.179V131.743H292.766V130.917H292.353V130.091H291.94V128.852H291.527V128.027H291.114V126.788H290.701V125.549H290.288V124.31H289.875V122.658H289.462V121.006H289.049V119.355H288.636V116.877H288.223V113.986H287.811V99.9459H288.223V97.4682H288.636V94.5776H289.049V93.3387H289.462V91.6869H289.875V90.0351H290.288V88.3833H290.701V87.5574H291.114V86.3185H291.527V85.0797H291.94V84.2538H292.353V83.0149H292.766V82.189H293.179V81.3631H293.592V80.5372H294.005V79.7113H294.418V78.8854H294.831V78.0595H295.244V77.2336H295.657V76.8207H296.07V75.9948H296.483V75.1689H296.895V74.7559H297.308V73.93H297.721V73.5171H298.134V72.6911H298.547V72.2782H298.96V71.8652H299.373V71.0393H299.786V70.6264H300.199V70.2134H300.612V69.3875H301.025V68.9746H301.438V68.5616H301.851V68.1487H302.264V67.7357H302.677V66.9098H303.09V66.4969H303.503V66.0839H303.916V65.671H304.329V65.258H304.742V64.8451H305.154V64.4321H305.567V64.0192H305.98V63.6062H306.393V63.1933H306.806V62.7803H307.219V62.3674H308.045V61.9544H308.458V61.5415H308.871V61.1285H309.284V60.7156H309.697V60.3026H310.11V59.8897H310.936V59.4767H311.349V59.0638H311.762V58.6508H312.588V58.2379H313.001V57.8249H313.414V57.412H314.239V56.999H315.065V56.5861H315.478V56.1731H316.304V55.7602H317.13V55.3472H317.543V54.9342H318.369V54.5213H319.195V54.1083H320.021V53.6954H320.847V53.2824H321.673V52.8695H322.498V52.4565H323.324V52.0436H324.15V51.6306H325.389V51.2177H326.628V50.8047H327.454V50.3918H328.693V49.9788H329.932V49.5659H331.583V49.1529H333.235V48.74H334.887V48.327H337.365V47.9141H339.842V47.5011H344.385V47.0882H350.579V47.5011H355.122V47.9141H357.599V48.327H360.077V48.74H361.729V49.1529H363.381V49.5659H365.032V49.9788H366.271V50.3918H367.51V50.8047H368.336V51.2177H369.575V51.6306H370.814V52.0436H371.64V52.4565H372.466V52.8695H373.291V53.2824H374.117V53.6954H374.943V54.1083H375.769V54.5213H376.595V54.9342H377.421V55.3472H377.834V55.7602H378.66V56.1731H379.486V56.5861H379.899V56.999H380.725V57.412H381.138V57.8249H381.963V58.2379H382.376V58.6508H382.789V59.0638H383.615V59.4767H384.028V59.8897H384.441V60.3026H385.267V60.7156H385.68V61.1285H386.093V61.5415H386.506V61.9544H386.919V62.3674H387.332V62.7803H388.158V63.1933H388.571V63.6062H388.984V64.0192H389.397V64.4321H389.809V64.8451H390.222V65.258H390.635V65.671H391.048V66.0839H391.461V66.4969H391.874V67.3228H392.287V67.7357H392.7V68.1487H393.113V68.5616H393.526V68.9746H393.939V69.3875H394.352V70.2134H394.765V70.6264H395.178V71.0393H395.591V71.8652H396.004V72.2782H396.417V72.6911H396.83V73.5171H397.243V73.93H397.656V74.7559H398.069V75.1689H398.481V75.9948H398.894V76.8207H399.307V77.2336H399.72V78.0595H400.133V78.8854H400.546V79.7113H400.959V80.5372H401.372V81.3631H401.785V82.189H402.198V83.0149H402.611V84.2538H403.024V85.0797H403.437V86.3185H403.85V87.5574H404.263V88.7962H404.676V90.0351H405.089V91.6869H405.502V93.3387H405.915V94.9905H406.328V97.4682H406.74V100.359H407.153V113.986H406.74V116.464H406.328V119.355H405.915V121.006H405.502V122.658H405.089V124.31H404.676V125.549H404.263V126.788H403.85V127.614H403.437V128.852H403.024V130.091H402.611V130.917H402.198V131.743H401.785V132.569H401.372V133.395H400.959V134.634H400.546V135.46H400.133V135.873H399.72V136.699H399.307V137.524H398.894V137.937H398.481V138.763H398.069V139.589H397.656V140.002H397.243V140.828H396.83V141.241H396.417V142.067H396.004V142.48H395.591V142.893H395.178V143.719H394.765V144.132H394.352V144.545H393.939V145.371H393.526V145.783H393.113V146.196H392.7V146.609H392.287V147.022H391.874V147.435H391.461V147.848H391.048V148.261H390.635V148.674H390.222V149.5H389.809V149.913H388.984V150.326H388.571V150.739H388.158V151.152H387.745V151.565H387.332V151.978H386.919V152.391H386.506V152.804H386.093V153.217H385.68V153.63H384.854V154.043H384.441V154.455H384.028V154.868H383.202V155.281H382.789V155.694H382.376V156.107H381.55V156.52H381.138V156.933H380.312V157.346H379.899V157.759H379.073V158.172H378.247V158.585H377.834V158.998H377.008V159.411H376.182V159.824H375.356V160.237H374.53V160.65H373.704V161.063H372.878V161.476H372.053V161.889H371.227V162.302H370.401V162.714H369.162V163.127H367.923V163.54H366.684V163.953H365.858V164.366H364.207V164.779H362.555V165.192H360.903V165.605H359.251V166.018H356.36V166.431H353.883V166.844" fill="url(#paint0_radial)"/>
<path d="M347.47 453.89C314.52 453.89 287.811 427.181 287.811 394.231C287.811 361.278 314.52 334.568 347.47 334.568C380.419 334.568 407.133 361.278 407.133 394.231C407.133 427.181 380.419 453.89 347.47 453.89Z" fill="url(#paint1_radial)"/>
<path d="M510.996 325C460.742 325 420 284.481 420 234.498C420 184.514 460.742 144 510.996 144C561.254 144 602 184.514 602 234.498C602 284.481 561.254 325 510.996 325Z" fill="#FF2D55"/>
<path d="M490.855 309.94C457.902 309.94 431.192 283.226 431.192 250.272C431.192 217.323 457.902 190.613 490.855 190.613C523.805 190.613 550.514 217.323 550.514 250.272C550.514 283.226 523.805 309.94 490.855 309.94Z" fill="url(#paint2_radial)"/>
<path d="M510.996 617C460.742 617 420 576.258 420 526.004C420 475.745 460.742 435 510.996 435C561.254 435 602 475.745 602 526.004C602 576.258 561.254 617 510.996 617Z" fill="#FF2D55"/>
<path d="M490.855 601.685C457.902 601.685 431.192 574.975 431.192 542.026C431.192 509.073 457.902 482.368 490.855 482.368C523.805 482.368 550.514 509.073 550.514 542.026C550.514 574.975 523.805 601.685 490.855 601.685Z" fill="url(#paint3_radial)"/>
<g filter="url(#filter4_d)">
<path d="M519.648 466.634C517.003 466.238 514.388 466.021 511.81 465.963C488.294 465.451 465.651 457.018 449.016 440.374L446.36 437.719C432.016 423.37 425.08 403.384 426.793 383.162C426.933 381.506 427.003 379.833 427.003 378.144V377.835C426.892 355.913 434.692 334.703 450.186 319.203L452.221 317.168C467.22 302.163 487.606 293.301 508.812 293.894C509.973 293.931 511.151 293.927 512.329 293.894C543.069 292.963 568.603 267.798 569.942 237.058C571.429 202.969 544.247 174.866 510.496 174.866C509.994 174.866 509.491 174.874 508.993 174.887C487.738 175.418 467.166 167.45 452.13 152.412C435.809 136.08 427.288 113.861 426.999 90.7681L426.987 90.0388C426.208 58.1622 399.402 32.0165 367.529 32C334.676 31.9835 308.038 58.603 308.001 91.4603C307.964 123.279 333.951 150.101 365.742 151.028L366.549 151.044C389.489 151.407 411.53 159.956 427.753 176.185L428.519 176.955C443.539 191.981 451.216 212.54 451.001 233.787L450.997 234.392V234.705C451.109 256.678 443.296 277.933 427.765 293.465L425.813 295.422C410.83 310.411 390.469 319.273 369.292 318.647C368.11 318.61 366.915 318.61 365.713 318.647C334.965 319.549 309.41 344.714 308.059 375.458C306.564 409.555 333.75 437.666 367.504 437.666H367.772C386.56 437.584 404.739 444.246 418.021 457.538L425.438 464.954C441.908 481.426 450.396 503.806 451.018 527.092C451.088 529.699 451.327 532.345 451.747 535.014C455.779 560.805 476.902 581.266 502.799 584.517C541.726 589.398 574.456 556.619 569.501 517.664C566.198 491.663 545.561 470.511 519.648 466.634Z" fill="white"/>
</g>
<path d="M368.783 101.015C368.783 109.371 367.053 115.762 363.595 120.189C360.136 124.617 355.073 126.83 348.404 126.83C341.819 126.83 336.783 124.658 333.297 120.314C329.811 115.97 328.026 109.744 327.943 101.637V90.5142C327.943 82.075 329.686 75.6696 333.172 71.2979C336.686 66.9261 341.736 64.7402 348.321 64.7402C354.907 64.7402 359.942 66.9123 363.429 71.2563C366.915 75.5728 368.7 81.7845 368.783 89.8916V101.015ZM356.788 88.8125C356.788 83.8044 356.096 80.1659 354.713 77.897C353.357 75.6004 351.227 74.4521 348.321 74.4521C345.499 74.4521 343.41 75.5451 342.054 77.731C340.726 79.8892 340.021 83.2786 339.938 87.8994V102.592C339.938 107.517 340.602 111.183 341.93 113.59C343.285 115.97 345.444 117.16 348.404 117.16C351.337 117.16 353.454 116.011 354.754 113.715C356.055 111.418 356.733 107.904 356.788 103.173V88.8125ZM406.053 126H394.059V79.7646L379.74 84.2056V74.4521L404.767 65.4873H406.053V126Z" fill="#FF2D55"/>
<path d="M503.783 236.015C503.783 244.371 502.053 250.762 498.595 255.189C495.136 259.617 490.073 261.83 483.404 261.83C476.819 261.83 471.783 259.658 468.297 255.314C464.811 250.97 463.026 244.744 462.943 236.637V225.514C462.943 217.075 464.686 210.67 468.172 206.298C471.686 201.926 476.736 199.74 483.321 199.74C489.907 199.74 494.942 201.912 498.429 206.256C501.915 210.573 503.7 216.785 503.783 224.892V236.015ZM491.788 223.812C491.788 218.804 491.096 215.166 489.713 212.897C488.357 210.6 486.227 209.452 483.321 209.452C480.499 209.452 478.41 210.545 477.054 212.731C475.726 214.889 475.021 218.279 474.938 222.899V237.592C474.938 242.517 475.602 246.183 476.93 248.59C478.285 250.97 480.444 252.16 483.404 252.16C486.337 252.16 488.454 251.011 489.754 248.715C491.055 246.418 491.733 242.904 491.788 238.173V223.812ZM553.338 261H511.917V252.782L531.466 231.947C534.15 229.014 536.128 226.455 537.401 224.269C538.701 222.083 539.352 220.008 539.352 218.043C539.352 215.36 538.674 213.257 537.318 211.735C535.962 210.185 534.025 209.411 531.507 209.411C528.796 209.411 526.651 210.351 525.074 212.233C523.525 214.087 522.75 216.535 522.75 219.579H510.714C510.714 215.899 511.585 212.537 513.329 209.494C515.099 206.45 517.59 204.07 520.799 202.355C524.009 200.612 527.647 199.74 531.715 199.74C537.94 199.74 542.769 201.234 546.2 204.223C549.658 207.211 551.388 211.431 551.388 216.881C551.388 219.87 550.613 222.913 549.063 226.012C547.514 229.111 544.858 232.722 541.095 236.845L527.357 251.33H553.338V261Z" fill="#545451"/>
<path d="M362.783 385.015C362.783 393.371 361.053 399.762 357.595 404.189C354.136 408.617 349.073 410.83 342.404 410.83C335.819 410.83 330.783 408.658 327.297 404.314C323.811 399.97 322.026 393.744 321.943 385.637V374.514C321.943 366.075 323.686 359.67 327.172 355.298C330.686 350.926 335.736 348.74 342.321 348.74C348.907 348.74 353.942 350.912 357.429 355.256C360.915 359.573 362.7 365.785 362.783 373.892V385.015ZM350.788 372.812C350.788 367.804 350.096 364.166 348.713 361.897C347.357 359.6 345.227 358.452 342.321 358.452C339.499 358.452 337.41 359.545 336.054 361.731C334.726 363.889 334.021 367.279 333.938 371.899V386.592C333.938 391.517 334.602 395.183 335.93 397.59C337.285 399.97 339.444 401.16 342.404 401.16C345.337 401.16 347.454 400.011 348.754 397.715C350.055 395.418 350.733 391.904 350.788 387.173V372.812ZM383.12 374.473H389.511C392.555 374.473 394.81 373.712 396.276 372.19C397.743 370.668 398.476 368.648 398.476 366.13C398.476 363.695 397.743 361.8 396.276 360.444C394.838 359.089 392.845 358.411 390.3 358.411C388.003 358.411 386.08 359.047 384.531 360.32C382.981 361.565 382.207 363.197 382.207 365.217H370.212C370.212 362.063 371.056 359.241 372.744 356.75C374.459 354.233 376.839 352.268 379.882 350.857C382.954 349.446 386.329 348.74 390.009 348.74C396.401 348.74 401.409 350.276 405.034 353.347C408.658 356.391 410.471 360.597 410.471 365.964C410.471 368.731 409.627 371.277 407.939 373.601C406.251 375.925 404.038 377.71 401.298 378.955C404.702 380.173 407.233 381.999 408.894 384.434C410.581 386.868 411.425 389.746 411.425 393.066C411.425 398.434 409.461 402.737 405.532 405.974C401.63 409.211 396.456 410.83 390.009 410.83C383.977 410.83 379.038 409.239 375.192 406.057C371.374 402.875 369.465 398.669 369.465 393.44H381.459C381.459 395.709 382.303 397.563 383.991 399.001C385.707 400.44 387.81 401.16 390.3 401.16C393.15 401.16 395.377 400.413 396.982 398.918C398.614 397.397 399.431 395.391 399.431 392.9C399.431 386.868 396.11 383.853 389.47 383.853H383.12V374.473Z" fill="#FF2D55"/>
<path d="M503.783 529.015C503.783 537.371 502.053 543.762 498.595 548.189C495.136 552.617 490.073 554.83 483.404 554.83C476.819 554.83 471.783 552.658 468.297 548.314C464.811 543.97 463.026 537.744 462.943 529.637V518.514C462.943 510.075 464.686 503.67 468.172 499.298C471.686 494.926 476.736 492.74 483.321 492.74C489.907 492.74 494.942 494.912 498.429 499.256C501.915 503.573 503.7 509.785 503.783 517.892V529.015ZM491.788 516.812C491.788 511.804 491.096 508.166 489.713 505.897C488.357 503.6 486.227 502.452 483.321 502.452C480.499 502.452 478.41 503.545 477.054 505.731C475.726 507.889 475.021 511.279 474.938 515.899V530.592C474.938 535.517 475.602 539.183 476.93 541.59C478.285 543.97 480.444 545.16 483.404 545.16C486.337 545.16 488.454 544.011 489.754 541.715C491.055 539.418 491.733 535.904 491.788 531.173V516.812ZM547.403 531.256H554.251V540.926H547.403V554H535.409V540.926H510.631L510.091 533.373L535.284 493.57H547.403V531.256ZM522.044 531.256H535.409V509.923L534.62 511.292L522.044 531.256Z" fill="#545451"/>
<path d="M533.641 94.334C533.559 96.1152 533.078 97.6914 532.199 99.0625C531.32 100.422 530.084 101.477 528.49 102.227C526.908 102.977 525.098 103.352 523.059 103.352C519.695 103.352 517.047 102.256 515.113 100.064C513.18 97.873 512.213 94.7793 512.213 90.7832V89.5176C512.213 87.0098 512.646 84.8184 513.514 82.9434C514.393 81.0566 515.652 79.6035 517.293 78.584C518.934 77.5527 520.832 77.0371 522.988 77.0371C526.094 77.0371 528.59 77.8574 530.477 79.498C532.363 81.127 533.436 83.377 533.693 86.248H527.541C527.494 84.6895 527.102 83.5703 526.363 82.8906C525.625 82.2109 524.5 81.8711 522.988 81.8711C521.453 81.8711 520.328 82.4453 519.613 83.5938C518.898 84.7422 518.523 86.5762 518.488 89.0957V90.9062C518.488 93.6367 518.828 95.5879 519.508 96.7598C520.199 97.9316 521.383 98.5176 523.059 98.5176C524.477 98.5176 525.561 98.1836 526.311 97.5156C527.061 96.8477 527.459 95.7871 527.506 94.334H533.641ZM547 103C546.789 102.613 546.602 102.045 546.438 101.295C545.348 102.666 543.824 103.352 541.867 103.352C540.074 103.352 538.551 102.812 537.297 101.734C536.043 100.645 535.416 99.2793 535.416 97.6387C535.416 95.5762 536.178 94.0176 537.701 92.9629C539.225 91.9082 541.439 91.3809 544.346 91.3809H546.174V90.3789C546.174 88.6328 545.418 87.7598 543.906 87.7598C542.5 87.7598 541.797 88.4512 541.797 89.834H535.873C535.873 87.9941 536.652 86.5 538.211 85.3516C539.781 84.2031 541.779 83.6289 544.205 83.6289C546.631 83.6289 548.547 84.2207 549.953 85.4043C551.359 86.5879 552.08 88.2109 552.115 90.2734V98.6934C552.139 100.439 552.408 101.775 552.924 102.701V103H547ZM543.291 99.1328C544.029 99.1328 544.639 98.9746 545.119 98.6582C545.611 98.3418 545.963 97.9844 546.174 97.5859V94.5449H544.451C542.389 94.5449 541.357 95.4707 541.357 97.3223C541.357 97.8613 541.539 98.3008 541.902 98.6406C542.266 98.9688 542.729 99.1328 543.291 99.1328ZM554.664 93.3496C554.664 90.3379 555.314 87.9648 556.615 86.2305C557.916 84.4961 559.732 83.6289 562.064 83.6289C563.764 83.6289 565.193 84.2969 566.354 85.6328V76H572.295V103H566.969L566.67 100.961C565.451 102.555 563.904 103.352 562.029 103.352C559.768 103.352 557.975 102.484 556.65 100.75C555.326 99.0156 554.664 96.5488 554.664 93.3496ZM560.588 93.7188C560.588 97.0938 561.572 98.7812 563.541 98.7812C564.854 98.7812 565.791 98.2305 566.354 97.1289V89.8867C565.814 88.7617 564.889 88.1992 563.576 88.1992C561.748 88.1992 560.758 89.6758 560.605 92.6289L560.588 93.7188ZM586.375 103C586.164 102.613 585.977 102.045 585.812 101.295C584.723 102.666 583.199 103.352 581.242 103.352C579.449 103.352 577.926 102.812 576.672 101.734C575.418 100.645 574.791 99.2793 574.791 97.6387C574.791 95.5762 575.553 94.0176 577.076 92.9629C578.6 91.9082 580.814 91.3809 583.721 91.3809H585.549V90.3789C585.549 88.6328 584.793 87.7598 583.281 87.7598C581.875 87.7598 581.172 88.4512 581.172 89.834H575.248C575.248 87.9941 576.027 86.5 577.586 85.3516C579.156 84.2031 581.154 83.6289 583.58 83.6289C586.006 83.6289 587.922 84.2207 589.328 85.4043C590.734 86.5879 591.455 88.2109 591.49 90.2734V98.6934C591.514 100.439 591.783 101.775 592.299 102.701V103H586.375ZM582.666 99.1328C583.404 99.1328 584.014 98.9746 584.494 98.6582C584.986 98.3418 585.338 97.9844 585.549 97.5859V94.5449H583.826C581.764 94.5449 580.732 95.4707 580.732 97.3223C580.732 97.8613 580.914 98.3008 581.277 98.6406C581.641 98.9688 582.104 99.1328 582.666 99.1328ZM604.744 97.6562C604.744 97.1523 604.48 96.748 603.953 96.4434C603.426 96.1387 602.424 95.8223 600.947 95.4941C599.471 95.166 598.252 94.7383 597.291 94.2109C596.33 93.6719 595.598 93.0215 595.094 92.2598C594.59 91.498 594.338 90.625 594.338 89.6406C594.338 87.8945 595.059 86.459 596.5 85.334C597.941 84.1973 599.828 83.6289 602.16 83.6289C604.668 83.6289 606.684 84.1973 608.207 85.334C609.73 86.4707 610.492 87.9648 610.492 89.8164H604.551C604.551 88.293 603.748 87.5312 602.143 87.5312C601.521 87.5312 601 87.707 600.578 88.0586C600.156 88.3984 599.945 88.8262 599.945 89.3418C599.945 89.8691 600.203 90.2969 600.719 90.625C601.234 90.9531 602.055 91.2227 603.18 91.4336C604.316 91.6445 605.312 91.8965 606.168 92.1895C609.027 93.1738 610.457 94.9375 610.457 97.4805C610.457 99.2148 609.684 100.627 608.137 101.717C606.602 102.807 604.609 103.352 602.16 103.352C600.531 103.352 599.078 103.059 597.801 102.473C596.523 101.887 595.527 101.09 594.812 100.082C594.098 99.0742 593.74 98.0137 593.74 96.9004H599.277C599.301 97.7793 599.594 98.4238 600.156 98.834C600.719 99.2324 601.439 99.4316 602.318 99.4316C603.127 99.4316 603.73 99.2676 604.129 98.9395C604.539 98.6113 604.744 98.1836 604.744 97.6562ZM620.143 79.252V83.9805H623.271V88.0938H620.143V96.7949C620.143 97.5098 620.271 98.0078 620.529 98.2891C620.787 98.5703 621.297 98.7109 622.059 98.7109C622.645 98.7109 623.137 98.6758 623.535 98.6055V102.842C622.469 103.182 621.355 103.352 620.195 103.352C618.156 103.352 616.65 102.871 615.678 101.91C614.705 100.949 614.219 99.4902 614.219 97.5332V88.0938H611.793V83.9805H614.219V79.252H620.143ZM637.123 89.3418L635.172 89.2012C633.309 89.2012 632.113 89.7871 631.586 90.959V103H625.662V83.9805H631.217L631.41 86.4238C632.406 84.5605 633.795 83.6289 635.576 83.6289C636.209 83.6289 636.76 83.6992 637.229 83.8398L637.123 89.3418ZM648.109 103.352C645.191 103.352 642.83 102.484 641.025 100.75C639.221 99.0039 638.318 96.7363 638.318 93.9473V93.4551C638.318 91.5098 638.676 89.793 639.391 88.3047C640.117 86.8164 641.172 85.668 642.555 84.8594C643.938 84.0391 645.578 83.6289 647.477 83.6289C650.148 83.6289 652.258 84.4609 653.805 86.125C655.352 87.7773 656.125 90.0859 656.125 93.0508V95.3535H644.348C644.559 96.4199 645.021 97.2578 645.736 97.8672C646.451 98.4766 647.377 98.7812 648.514 98.7812C650.389 98.7812 651.854 98.125 652.908 96.8125L655.615 100.012C654.877 101.031 653.828 101.846 652.469 102.455C651.121 103.053 649.668 103.352 648.109 103.352ZM647.441 88.1992C645.707 88.1992 644.676 89.3477 644.348 91.6445H650.324V91.1875C650.348 90.2383 650.107 89.5059 649.604 88.9902C649.1 88.4629 648.379 88.1992 647.441 88.1992ZM670.1 94.2637H659.535V89.6758H670.1V94.2637ZM684.689 97.6562C684.689 97.1523 684.426 96.748 683.898 96.4434C683.371 96.1387 682.369 95.8223 680.893 95.4941C679.416 95.166 678.197 94.7383 677.236 94.2109C676.275 93.6719 675.543 93.0215 675.039 92.2598C674.535 91.498 674.283 90.625 674.283 89.6406C674.283 87.8945 675.004 86.459 676.445 85.334C677.887 84.1973 679.773 83.6289 682.105 83.6289C684.613 83.6289 686.629 84.1973 688.152 85.334C689.676 86.4707 690.438 87.9648 690.438 89.8164H684.496C684.496 88.293 683.693 87.5312 682.088 87.5312C681.467 87.5312 680.945 87.707 680.523 88.0586C680.102 88.3984 679.891 88.8262 679.891 89.3418C679.891 89.8691 680.148 90.2969 680.664 90.625C681.18 90.9531 682 91.2227 683.125 91.4336C684.262 91.6445 685.258 91.8965 686.113 92.1895C688.973 93.1738 690.402 94.9375 690.402 97.4805C690.402 99.2148 689.629 100.627 688.082 101.717C686.547 102.807 684.555 103.352 682.105 103.352C680.477 103.352 679.023 103.059 677.746 102.473C676.469 101.887 675.473 101.09 674.758 100.082C674.043 99.0742 673.686 98.0137 673.686 96.9004H679.223C679.246 97.7793 679.539 98.4238 680.102 98.834C680.664 99.2324 681.385 99.4316 682.264 99.4316C683.072 99.4316 683.676 99.2676 684.074 98.9395C684.484 98.6113 684.689 98.1836 684.689 97.6562ZM702.391 103.352C699.473 103.352 697.111 102.484 695.307 100.75C693.502 99.0039 692.6 96.7363 692.6 93.9473V93.4551C692.6 91.5098 692.957 89.793 693.672 88.3047C694.398 86.8164 695.453 85.668 696.836 84.8594C698.219 84.0391 699.859 83.6289 701.758 83.6289C704.43 83.6289 706.539 84.4609 708.086 86.125C709.633 87.7773 710.406 90.0859 710.406 93.0508V95.3535H698.629C698.84 96.4199 699.303 97.2578 700.018 97.8672C700.732 98.4766 701.658 98.7812 702.795 98.7812C704.67 98.7812 706.135 98.125 707.189 96.8125L709.896 100.012C709.158 101.031 708.109 101.846 706.75 102.455C705.402 103.053 703.949 103.352 702.391 103.352ZM701.723 88.1992C699.988 88.1992 698.957 89.3477 698.629 91.6445H704.605V91.1875C704.629 90.2383 704.389 89.5059 703.885 88.9902C703.381 88.4629 702.66 88.1992 701.723 88.1992Z" fill="#FF2D55"/>
<path d="M97.9336 247V221.406H107.127C110.42 221.406 112.922 222.01 114.633 223.217C116.355 224.424 117.217 226.176 117.217 228.473C117.217 229.797 116.912 230.928 116.303 231.865C115.693 232.803 114.797 233.494 113.613 233.939C114.949 234.291 115.975 234.947 116.689 235.908C117.404 236.869 117.762 238.041 117.762 239.424C117.762 241.932 116.965 243.818 115.371 245.084C113.789 246.338 111.439 246.977 108.322 247H97.9336ZM104.104 236.119V242.254H108.146C109.26 242.254 110.115 242.002 110.713 241.498C111.311 240.982 111.609 240.262 111.609 239.336C111.609 237.203 110.549 236.131 108.428 236.119H104.104ZM104.104 232.076H107.32C108.668 232.064 109.629 231.818 110.203 231.338C110.777 230.857 111.064 230.148 111.064 229.211C111.064 228.133 110.754 227.359 110.133 226.891C109.512 226.41 108.51 226.17 107.127 226.17H104.104V232.076ZM131.613 247C131.402 246.613 131.215 246.045 131.051 245.295C129.961 246.666 128.438 247.352 126.48 247.352C124.688 247.352 123.164 246.812 121.91 245.734C120.656 244.645 120.029 243.279 120.029 241.639C120.029 239.576 120.791 238.018 122.314 236.963C123.838 235.908 126.053 235.381 128.959 235.381H130.787V234.379C130.787 232.633 130.031 231.76 128.52 231.76C127.113 231.76 126.41 232.451 126.41 233.834H120.486C120.486 231.994 121.266 230.5 122.824 229.352C124.395 228.203 126.393 227.629 128.818 227.629C131.244 227.629 133.16 228.221 134.566 229.404C135.973 230.588 136.693 232.211 136.729 234.273V242.693C136.752 244.439 137.021 245.775 137.537 246.701V247H131.613ZM127.904 243.133C128.643 243.133 129.252 242.975 129.732 242.658C130.225 242.342 130.576 241.984 130.787 241.586V238.545H129.064C127.002 238.545 125.971 239.471 125.971 241.322C125.971 241.861 126.152 242.301 126.516 242.641C126.879 242.969 127.342 243.133 127.904 243.133ZM146.273 247H140.332V227.98H146.273V247ZM139.98 223.076C139.98 222.232 140.285 221.541 140.895 221.002C141.504 220.463 142.295 220.193 143.268 220.193C144.24 220.193 145.031 220.463 145.641 221.002C146.25 221.541 146.555 222.232 146.555 223.076C146.555 223.92 146.25 224.611 145.641 225.15C145.031 225.689 144.24 225.959 143.268 225.959C142.295 225.959 141.504 225.689 140.895 225.15C140.285 224.611 139.98 223.92 139.98 223.076ZM157.646 233.219L160.406 227.98H166.559L161.549 237.244L166.805 247H160.617L157.629 241.375L154.693 247H148.471L153.744 237.244L148.752 227.98H154.975L157.646 233.219ZM177.316 247.352C174.398 247.352 172.037 246.484 170.232 244.75C168.428 243.004 167.525 240.736 167.525 237.947V237.455C167.525 235.51 167.883 233.793 168.598 232.305C169.324 230.816 170.379 229.668 171.762 228.859C173.145 228.039 174.785 227.629 176.684 227.629C179.355 227.629 181.465 228.461 183.012 230.125C184.559 231.777 185.332 234.086 185.332 237.051V239.354H173.555C173.766 240.42 174.229 241.258 174.943 241.867C175.658 242.477 176.584 242.781 177.721 242.781C179.596 242.781 181.061 242.125 182.115 240.812L184.822 244.012C184.084 245.031 183.035 245.846 181.676 246.455C180.328 247.053 178.875 247.352 177.316 247.352ZM176.648 232.199C174.914 232.199 173.883 233.348 173.555 235.645H179.531V235.188C179.555 234.238 179.314 233.506 178.811 232.99C178.307 232.463 177.586 232.199 176.648 232.199ZM195.949 237.314C195.949 235.416 196.318 233.729 197.057 232.252C197.795 230.764 198.855 229.621 200.238 228.824C201.621 228.027 203.244 227.629 205.107 227.629C207.955 227.629 210.199 228.514 211.84 230.283C213.48 232.041 214.301 234.438 214.301 237.473V237.684C214.301 240.648 213.475 243.004 211.822 244.75C210.182 246.484 207.955 247.352 205.143 247.352C202.436 247.352 200.262 246.543 198.621 244.926C196.98 243.297 196.096 241.094 195.967 238.316L195.949 237.314ZM201.873 237.684C201.873 239.441 202.148 240.73 202.699 241.551C203.25 242.371 204.064 242.781 205.143 242.781C207.252 242.781 208.33 241.158 208.377 237.912V237.314C208.377 233.904 207.287 232.199 205.107 232.199C203.127 232.199 202.055 233.67 201.891 236.611L201.873 237.684ZM240.686 242.219H232.23L230.754 247H224.162L233.549 221.406H239.35L248.807 247H242.18L240.686 242.219ZM233.707 237.455H239.209L236.449 228.578L233.707 237.455ZM256.857 238.316V247H250.688V221.406H260.9C262.857 221.406 264.586 221.77 266.086 222.496C267.598 223.211 268.764 224.236 269.584 225.572C270.416 226.896 270.832 228.402 270.832 230.09C270.832 232.586 269.936 234.584 268.143 236.084C266.361 237.572 263.912 238.316 260.795 238.316H256.857ZM256.857 233.553H260.9C262.096 233.553 263.004 233.254 263.625 232.656C264.258 232.059 264.574 231.215 264.574 230.125C264.574 228.93 264.252 227.975 263.607 227.26C262.963 226.545 262.084 226.182 260.971 226.17H256.857V233.553ZM280.307 238.316V247H274.137V221.406H284.35C286.307 221.406 288.035 221.77 289.535 222.496C291.047 223.211 292.213 224.236 293.033 225.572C293.865 226.896 294.281 228.402 294.281 230.09C294.281 232.586 293.385 234.584 291.592 236.084C289.811 237.572 287.361 238.316 284.244 238.316H280.307ZM280.307 233.553H284.35C285.545 233.553 286.453 233.254 287.074 232.656C287.707 232.059 288.023 231.215 288.023 230.125C288.023 228.93 287.701 227.975 287.057 227.26C286.412 226.545 285.533 226.182 284.42 226.17H280.307V233.553Z" fill="#545451"/>
<path d="M139.807 534.154H130.104V540.254H141.564V545H123.934V519.406H141.6V524.17H130.104V529.566H139.807V534.154ZM151.514 531.219L154.273 525.98H160.426L155.416 535.244L160.672 545H154.484L151.496 539.375L148.561 545H142.338L147.611 535.244L142.619 525.98H148.842L151.514 531.219ZM171.184 545.352C168.266 545.352 165.904 544.484 164.1 542.75C162.295 541.004 161.393 538.736 161.393 535.947V535.455C161.393 533.51 161.75 531.793 162.465 530.305C163.191 528.816 164.246 527.668 165.629 526.859C167.012 526.039 168.652 525.629 170.551 525.629C173.223 525.629 175.332 526.461 176.879 528.125C178.426 529.777 179.199 532.086 179.199 535.051V537.354H167.422C167.633 538.42 168.096 539.258 168.811 539.867C169.525 540.477 170.451 540.781 171.588 540.781C173.463 540.781 174.928 540.125 175.982 538.812L178.689 542.012C177.951 543.031 176.902 543.846 175.543 544.455C174.195 545.053 172.742 545.352 171.184 545.352ZM170.516 530.199C168.781 530.199 167.75 531.348 167.422 533.645H173.398V533.188C173.422 532.238 173.182 531.506 172.678 530.99C172.174 530.463 171.453 530.199 170.516 530.199ZM193.104 531.342L191.152 531.201C189.289 531.201 188.094 531.787 187.566 532.959V545H181.643V525.98H187.197L187.391 528.424C188.387 526.561 189.775 525.629 191.557 525.629C192.189 525.629 192.74 525.699 193.209 525.84L193.104 531.342ZM202.93 540.781C203.762 540.781 204.406 540.559 204.863 540.113C205.32 539.656 205.543 539.023 205.531 538.215H211.086C211.086 540.301 210.336 542.012 208.836 543.348C207.348 544.684 205.426 545.352 203.07 545.352C200.305 545.352 198.125 544.484 196.531 542.75C194.938 541.016 194.141 538.613 194.141 535.543V535.297C194.141 533.375 194.492 531.682 195.195 530.217C195.91 528.74 196.936 527.609 198.271 526.824C199.607 526.027 201.189 525.629 203.018 525.629C205.49 525.629 207.453 526.314 208.906 527.686C210.359 529.057 211.086 530.914 211.086 533.258H205.531C205.531 532.273 205.291 531.518 204.811 530.99C204.33 530.463 203.686 530.199 202.877 530.199C201.342 530.199 200.445 531.178 200.188 533.135C200.105 533.756 200.064 534.611 200.064 535.701C200.064 537.611 200.293 538.936 200.75 539.674C201.207 540.412 201.934 540.781 202.93 540.781ZM219.84 545H213.898V525.98H219.84V545ZM213.547 521.076C213.547 520.232 213.852 519.541 214.461 519.002C215.07 518.463 215.861 518.193 216.834 518.193C217.807 518.193 218.598 518.463 219.207 519.002C219.816 519.541 220.121 520.232 220.121 521.076C220.121 521.92 219.816 522.611 219.207 523.15C218.598 523.689 217.807 523.959 216.834 523.959C215.861 523.959 215.07 523.689 214.461 523.15C213.852 522.611 213.547 521.92 213.547 521.076ZM230.404 521.252V525.98H233.533V530.094H230.404V538.795C230.404 539.51 230.533 540.008 230.791 540.289C231.049 540.57 231.559 540.711 232.32 540.711C232.906 540.711 233.398 540.676 233.797 540.605V544.842C232.73 545.182 231.617 545.352 230.457 545.352C228.418 545.352 226.912 544.871 225.939 543.91C224.967 542.949 224.48 541.49 224.48 539.533V530.094H222.055V525.98H224.48V521.252H230.404ZM245.082 545.352C242.164 545.352 239.803 544.484 237.998 542.75C236.193 541.004 235.291 538.736 235.291 535.947V535.455C235.291 533.51 235.648 531.793 236.363 530.305C237.09 528.816 238.145 527.668 239.527 526.859C240.91 526.039 242.551 525.629 244.449 525.629C247.121 525.629 249.23 526.461 250.777 528.125C252.324 529.777 253.098 532.086 253.098 535.051V537.354H241.32C241.531 538.42 241.994 539.258 242.709 539.867C243.424 540.477 244.35 540.781 245.486 540.781C247.361 540.781 248.826 540.125 249.881 538.812L252.588 542.012C251.85 543.031 250.801 543.846 249.441 544.455C248.094 545.053 246.641 545.352 245.082 545.352ZM244.414 530.199C242.68 530.199 241.648 531.348 241.32 533.645H247.297V533.188C247.32 532.238 247.08 531.506 246.576 530.99C246.072 530.463 245.352 530.199 244.414 530.199ZM267.072 536.264H256.508V531.676H267.072V536.264ZM281.662 539.656C281.662 539.152 281.398 538.748 280.871 538.443C280.344 538.139 279.342 537.822 277.865 537.494C276.389 537.166 275.17 536.738 274.209 536.211C273.248 535.672 272.516 535.021 272.012 534.26C271.508 533.498 271.256 532.625 271.256 531.641C271.256 529.895 271.977 528.459 273.418 527.334C274.859 526.197 276.746 525.629 279.078 525.629C281.586 525.629 283.602 526.197 285.125 527.334C286.648 528.471 287.41 529.965 287.41 531.816H281.469C281.469 530.293 280.666 529.531 279.061 529.531C278.439 529.531 277.918 529.707 277.496 530.059C277.074 530.398 276.863 530.826 276.863 531.342C276.863 531.869 277.121 532.297 277.637 532.625C278.152 532.953 278.973 533.223 280.098 533.434C281.234 533.645 282.23 533.896 283.086 534.189C285.945 535.174 287.375 536.938 287.375 539.48C287.375 541.215 286.602 542.627 285.055 543.717C283.52 544.807 281.527 545.352 279.078 545.352C277.449 545.352 275.996 545.059 274.719 544.473C273.441 543.887 272.445 543.09 271.73 542.082C271.016 541.074 270.658 540.014 270.658 538.9H276.195C276.219 539.779 276.512 540.424 277.074 540.834C277.637 541.232 278.357 541.432 279.236 541.432C280.045 541.432 280.648 541.268 281.047 540.939C281.457 540.611 281.662 540.184 281.662 539.656ZM299.363 545.352C296.445 545.352 294.084 544.484 292.279 542.75C290.475 541.004 289.572 538.736 289.572 535.947V535.455C289.572 533.51 289.93 531.793 290.645 530.305C291.371 528.816 292.426 527.668 293.809 526.859C295.191 526.039 296.832 525.629 298.73 525.629C301.402 525.629 303.512 526.461 305.059 528.125C306.605 529.777 307.379 532.086 307.379 535.051V537.354H295.602C295.812 538.42 296.275 539.258 296.99 539.867C297.705 540.477 298.631 540.781 299.768 540.781C301.643 540.781 303.107 540.125 304.162 538.812L306.869 542.012C306.131 543.031 305.082 543.846 303.723 544.455C302.375 545.053 300.922 545.352 299.363 545.352ZM298.695 530.199C296.961 530.199 295.93 531.348 295.602 533.645H301.578V533.188C301.602 532.238 301.361 531.506 300.857 530.99C300.354 530.463 299.633 530.199 298.695 530.199Z" fill="#545451"/>
<path d="M508.807 365.154H499.104V371.254H510.564V376H492.934V350.406H510.6V355.17H499.104V360.566H508.807V365.154ZM518.246 356.98L518.439 359.213C519.752 357.49 521.562 356.629 523.871 356.629C525.852 356.629 527.328 357.221 528.301 358.404C529.285 359.588 529.795 361.369 529.83 363.748V376H523.889V363.994C523.889 363.033 523.695 362.33 523.309 361.885C522.922 361.428 522.219 361.199 521.199 361.199C520.039 361.199 519.178 361.656 518.615 362.57V376H512.691V356.98H518.246ZM541.168 371.781C542 371.781 542.645 371.559 543.102 371.113C543.559 370.656 543.781 370.023 543.77 369.215H549.324C549.324 371.301 548.574 373.012 547.074 374.348C545.586 375.684 543.664 376.352 541.309 376.352C538.543 376.352 536.363 375.484 534.77 373.75C533.176 372.016 532.379 369.613 532.379 366.543V366.297C532.379 364.375 532.73 362.682 533.434 361.217C534.148 359.74 535.174 358.609 536.51 357.824C537.846 357.027 539.428 356.629 541.256 356.629C543.729 356.629 545.691 357.314 547.145 358.686C548.598 360.057 549.324 361.914 549.324 364.258H543.77C543.77 363.273 543.529 362.518 543.049 361.99C542.568 361.463 541.924 361.199 541.115 361.199C539.58 361.199 538.684 362.178 538.426 364.135C538.344 364.756 538.303 365.611 538.303 366.701C538.303 368.611 538.531 369.936 538.988 370.674C539.445 371.412 540.172 371.781 541.168 371.781ZM551.082 366.314C551.082 364.416 551.451 362.729 552.189 361.252C552.928 359.764 553.988 358.621 555.371 357.824C556.754 357.027 558.377 356.629 560.24 356.629C563.088 356.629 565.332 357.514 566.973 359.283C568.613 361.041 569.434 363.438 569.434 366.473V366.684C569.434 369.648 568.607 372.004 566.955 373.75C565.314 375.484 563.088 376.352 560.275 376.352C557.568 376.352 555.395 375.543 553.754 373.926C552.113 372.297 551.229 370.094 551.1 367.316L551.082 366.314ZM557.006 366.684C557.006 368.441 557.281 369.73 557.832 370.551C558.383 371.371 559.197 371.781 560.275 371.781C562.385 371.781 563.463 370.158 563.51 366.912V366.314C563.51 362.904 562.42 361.199 560.24 361.199C558.26 361.199 557.188 362.67 557.023 365.611L557.006 366.684ZM577.484 356.98L577.678 359.213C578.99 357.49 580.801 356.629 583.109 356.629C585.09 356.629 586.566 357.221 587.539 358.404C588.523 359.588 589.033 361.369 589.068 363.748V376H583.127V363.994C583.127 363.033 582.934 362.33 582.547 361.885C582.16 361.428 581.457 361.199 580.438 361.199C579.277 361.199 578.416 361.656 577.854 362.57V376H571.93V356.98H577.484ZM599.264 352.252V356.98H602.393V361.094H599.264V369.795C599.264 370.51 599.393 371.008 599.65 371.289C599.908 371.57 600.418 371.711 601.18 371.711C601.766 371.711 602.258 371.676 602.656 371.605V375.842C601.59 376.182 600.477 376.352 599.316 376.352C597.277 376.352 595.771 375.871 594.799 374.91C593.826 373.949 593.34 372.49 593.34 370.533V361.094H590.914V356.98H593.34V352.252H599.264ZM616.244 362.342L614.293 362.201C612.43 362.201 611.234 362.787 610.707 363.959V376H604.783V356.98H610.338L610.531 359.424C611.527 357.561 612.916 356.629 614.697 356.629C615.33 356.629 615.881 356.699 616.35 356.84L616.244 362.342ZM627.23 376.352C624.312 376.352 621.951 375.484 620.146 373.75C618.342 372.004 617.439 369.736 617.439 366.947V366.455C617.439 364.51 617.797 362.793 618.512 361.305C619.238 359.816 620.293 358.668 621.676 357.859C623.059 357.039 624.699 356.629 626.598 356.629C629.27 356.629 631.379 357.461 632.926 359.125C634.473 360.777 635.246 363.086 635.246 366.051V368.354H623.469C623.68 369.42 624.143 370.258 624.857 370.867C625.572 371.477 626.498 371.781 627.635 371.781C629.51 371.781 630.975 371.125 632.029 369.812L634.736 373.012C633.998 374.031 632.949 374.846 631.59 375.455C630.242 376.053 628.789 376.352 627.23 376.352ZM626.562 361.199C624.828 361.199 623.797 362.348 623.469 364.645H629.445V364.188C629.469 363.238 629.229 362.506 628.725 361.99C628.221 361.463 627.5 361.199 626.562 361.199ZM657.939 373.943C656.686 375.549 654.992 376.352 652.859 376.352C650.773 376.352 649.191 375.748 648.113 374.541C647.047 373.322 646.514 371.576 646.514 369.303V356.98H652.438V369.338C652.438 370.967 653.229 371.781 654.811 371.781C656.17 371.781 657.137 371.295 657.711 370.322V356.98H663.67V376H658.115L657.939 373.943ZM672.529 356.98L672.723 359.213C674.07 357.49 675.881 356.629 678.154 356.629C680.557 356.629 682.18 357.584 683.023 359.494C684.312 357.584 686.176 356.629 688.613 356.629C692.469 356.629 694.449 358.961 694.555 363.625V376H688.613V363.994C688.613 363.021 688.449 362.312 688.121 361.867C687.793 361.422 687.195 361.199 686.328 361.199C685.156 361.199 684.283 361.721 683.709 362.764L683.727 363.01V376H677.785V364.029C677.785 363.033 677.627 362.312 677.311 361.867C676.994 361.422 676.391 361.199 675.5 361.199C674.363 361.199 673.496 361.721 672.898 362.764V376H666.975V356.98H672.529ZM724.561 366.631C724.561 369.584 723.893 371.945 722.557 373.715C721.232 375.473 719.439 376.352 717.178 376.352C715.432 376.352 713.996 375.713 712.871 374.436V383.312H706.947V356.98H712.484L712.66 358.738C713.797 357.332 715.291 356.629 717.143 356.629C719.486 356.629 721.309 357.496 722.609 359.23C723.91 360.953 724.561 363.326 724.561 366.35V366.631ZM718.637 366.262C718.637 362.887 717.652 361.199 715.684 361.199C714.277 361.199 713.34 361.703 712.871 362.711V370.199C713.387 371.254 714.336 371.781 715.719 371.781C717.605 371.781 718.578 370.152 718.637 366.895V366.262ZM736.391 376.352C733.473 376.352 731.111 375.484 729.307 373.75C727.502 372.004 726.6 369.736 726.6 366.947V366.455C726.6 364.51 726.957 362.793 727.672 361.305C728.398 359.816 729.453 358.668 730.836 357.859C732.219 357.039 733.859 356.629 735.758 356.629C738.43 356.629 740.539 357.461 742.086 359.125C743.633 360.777 744.406 363.086 744.406 366.051V368.354H732.629C732.84 369.42 733.303 370.258 734.018 370.867C734.732 371.477 735.658 371.781 736.795 371.781C738.67 371.781 740.135 371.125 741.189 369.812L743.896 373.012C743.158 374.031 742.109 374.846 740.75 375.455C739.402 376.053 737.949 376.352 736.391 376.352ZM735.723 361.199C733.988 361.199 732.957 362.348 732.629 364.645H738.605V364.188C738.629 363.238 738.389 362.506 737.885 361.99C737.381 361.463 736.66 361.199 735.723 361.199ZM758.311 362.342L756.359 362.201C754.496 362.201 753.301 362.787 752.773 363.959V376H746.85V356.98H752.404L752.598 359.424C753.594 357.561 754.982 356.629 756.764 356.629C757.396 356.629 757.947 356.699 758.416 356.84L758.311 362.342ZM770.404 370.656C770.404 370.152 770.141 369.748 769.613 369.443C769.086 369.139 768.084 368.822 766.607 368.494C765.131 368.166 763.912 367.738 762.951 367.211C761.99 366.672 761.258 366.021 760.754 365.26C760.25 364.498 759.998 363.625 759.998 362.641C759.998 360.895 760.719 359.459 762.16 358.334C763.602 357.197 765.488 356.629 767.82 356.629C770.328 356.629 772.344 357.197 773.867 358.334C775.391 359.471 776.152 360.965 776.152 362.816H770.211C770.211 361.293 769.408 360.531 767.803 360.531C767.182 360.531 766.66 360.707 766.238 361.059C765.816 361.398 765.605 361.826 765.605 362.342C765.605 362.869 765.863 363.297 766.379 363.625C766.895 363.953 767.715 364.223 768.84 364.434C769.977 364.645 770.973 364.896 771.828 365.189C774.688 366.174 776.117 367.938 776.117 370.48C776.117 372.215 775.344 373.627 773.797 374.717C772.262 375.807 770.27 376.352 767.82 376.352C766.191 376.352 764.738 376.059 763.461 375.473C762.184 374.887 761.188 374.09 760.473 373.082C759.758 372.074 759.4 371.014 759.4 369.9H764.938C764.961 370.779 765.254 371.424 765.816 371.834C766.379 372.232 767.1 372.432 767.979 372.432C768.787 372.432 769.391 372.268 769.789 371.939C770.199 371.611 770.404 371.184 770.404 370.656ZM778.156 366.314C778.156 364.416 778.525 362.729 779.264 361.252C780.002 359.764 781.062 358.621 782.445 357.824C783.828 357.027 785.451 356.629 787.314 356.629C790.162 356.629 792.406 357.514 794.047 359.283C795.688 361.041 796.508 363.438 796.508 366.473V366.684C796.508 369.648 795.682 372.004 794.029 373.75C792.389 375.484 790.162 376.352 787.35 376.352C784.643 376.352 782.469 375.543 780.828 373.926C779.188 372.297 778.303 370.094 778.174 367.316L778.156 366.314ZM784.08 366.684C784.08 368.441 784.355 369.73 784.906 370.551C785.457 371.371 786.271 371.781 787.35 371.781C789.459 371.781 790.537 370.158 790.584 366.912V366.314C790.584 362.904 789.494 361.199 787.314 361.199C785.334 361.199 784.262 362.67 784.098 365.611L784.08 366.684ZM804.559 356.98L804.752 359.213C806.064 357.49 807.875 356.629 810.184 356.629C812.164 356.629 813.641 357.221 814.613 358.404C815.598 359.588 816.107 361.369 816.143 363.748V376H810.201V363.994C810.201 363.033 810.008 362.33 809.621 361.885C809.234 361.428 808.531 361.199 807.512 361.199C806.352 361.199 805.49 361.656 804.928 362.57V376H799.004V356.98H804.559ZM830.152 376C829.941 375.613 829.754 375.045 829.59 374.295C828.5 375.666 826.977 376.352 825.02 376.352C823.227 376.352 821.703 375.812 820.449 374.734C819.195 373.645 818.568 372.279 818.568 370.639C818.568 368.576 819.33 367.018 820.854 365.963C822.377 364.908 824.592 364.381 827.498 364.381H829.326V363.379C829.326 361.633 828.57 360.76 827.059 360.76C825.652 360.76 824.949 361.451 824.949 362.834H819.025C819.025 360.994 819.805 359.5 821.363 358.352C822.934 357.203 824.932 356.629 827.357 356.629C829.783 356.629 831.699 357.221 833.105 358.404C834.512 359.588 835.232 361.211 835.268 363.273V371.693C835.291 373.439 835.561 374.775 836.076 375.701V376H830.152ZM826.443 372.133C827.182 372.133 827.791 371.975 828.271 371.658C828.764 371.342 829.115 370.984 829.326 370.586V367.545H827.604C825.541 367.545 824.51 368.471 824.51 370.322C824.51 370.861 824.691 371.301 825.055 371.641C825.418 371.969 825.881 372.133 826.443 372.133ZM844.812 376H838.871V349H844.812V376ZM499.561 394.252V398.98H502.689V403.094H499.561V411.795C499.561 412.51 499.689 413.008 499.947 413.289C500.205 413.57 500.715 413.711 501.477 413.711C502.062 413.711 502.555 413.676 502.953 413.605V417.842C501.887 418.182 500.773 418.352 499.613 418.352C497.574 418.352 496.068 417.871 495.096 416.91C494.123 415.949 493.637 414.49 493.637 412.533V403.094H491.211V398.98H493.637V394.252H499.561ZM516.541 404.342L514.59 404.201C512.727 404.201 511.531 404.787 511.004 405.959V418H505.08V398.98H510.635L510.828 401.424C511.824 399.561 513.213 398.629 514.994 398.629C515.627 398.629 516.178 398.699 516.646 398.84L516.541 404.342ZM528.863 418C528.652 417.613 528.465 417.045 528.301 416.295C527.211 417.666 525.688 418.352 523.73 418.352C521.938 418.352 520.414 417.812 519.16 416.734C517.906 415.645 517.279 414.279 517.279 412.639C517.279 410.576 518.041 409.018 519.564 407.963C521.088 406.908 523.303 406.381 526.209 406.381H528.037V405.379C528.037 403.633 527.281 402.76 525.77 402.76C524.363 402.76 523.66 403.451 523.66 404.834H517.736C517.736 402.994 518.516 401.5 520.074 400.352C521.645 399.203 523.643 398.629 526.068 398.629C528.494 398.629 530.41 399.221 531.816 400.404C533.223 401.588 533.943 403.211 533.979 405.273V413.693C534.002 415.439 534.271 416.775 534.787 417.701V418H528.863ZM525.154 414.133C525.893 414.133 526.502 413.975 526.982 413.658C527.475 413.342 527.826 412.984 528.037 412.586V409.545H526.314C524.252 409.545 523.221 410.471 523.221 412.322C523.221 412.861 523.402 413.301 523.766 413.641C524.129 413.969 524.592 414.133 525.154 414.133ZM543.523 418H537.582V398.98H543.523V418ZM537.23 394.076C537.23 393.232 537.535 392.541 538.145 392.002C538.754 391.463 539.545 391.193 540.518 391.193C541.49 391.193 542.281 391.463 542.891 392.002C543.5 392.541 543.805 393.232 543.805 394.076C543.805 394.92 543.5 395.611 542.891 396.15C542.281 396.689 541.49 396.959 540.518 396.959C539.545 396.959 538.754 396.689 538.145 396.15C537.535 395.611 537.23 394.92 537.23 394.076ZM552.629 398.98L552.822 401.213C554.135 399.49 555.945 398.629 558.254 398.629C560.234 398.629 561.711 399.221 562.684 400.404C563.668 401.588 564.178 403.369 564.213 405.748V418H558.271V405.994C558.271 405.033 558.078 404.33 557.691 403.885C557.305 403.428 556.602 403.199 555.582 403.199C554.422 403.199 553.561 403.656 552.998 404.57V418H547.074V398.98H552.629ZM576.711 418.352C573.793 418.352 571.432 417.484 569.627 415.75C567.822 414.004 566.92 411.736 566.92 408.947V408.455C566.92 406.51 567.277 404.793 567.992 403.305C568.719 401.816 569.773 400.668 571.156 399.859C572.539 399.039 574.18 398.629 576.078 398.629C578.75 398.629 580.859 399.461 582.406 401.125C583.953 402.777 584.727 405.086 584.727 408.051V410.354H572.949C573.16 411.42 573.623 412.258 574.338 412.867C575.053 413.477 575.979 413.781 577.115 413.781C578.99 413.781 580.455 413.125 581.51 411.812L584.217 415.012C583.479 416.031 582.43 416.846 581.07 417.455C579.723 418.053 578.27 418.352 576.711 418.352ZM576.043 403.199C574.309 403.199 573.277 404.348 572.949 406.645H578.926V406.188C578.949 405.238 578.709 404.506 578.205 403.99C577.701 403.463 576.98 403.199 576.043 403.199ZM598.631 404.342L596.68 404.201C594.816 404.201 593.621 404.787 593.094 405.959V418H587.17V398.98H592.725L592.918 401.424C593.914 399.561 595.303 398.629 597.084 398.629C597.717 398.629 598.268 398.699 598.736 398.84L598.631 404.342Z" fill="#FF2D55"/>
<defs>
<filter id="filter0_d" x="0" y="144" width="521" height="191" filterUnits="userSpaceOnUse" color-interpolation-filters="sRGB">
<feFlood flood-opacity="0" result="BackgroundImageFix"/>
<feColorMatrix in="SourceAlpha" type="matrix" values="0 0 0 0 0 0 0 0 0 0 0 0 0 0 0 0 0 0 127 0"/>
<feOffset dx="6" dy="6"/>
<feGaussianBlur stdDeviation="2"/>
<feColorMatrix type="matrix" values="0 0 0 0 0 0 0 0 0 0 0 0 0 0 0 0 0 0 0.42 0"/>
<feBlend mode="normal" in2="BackgroundImageFix" result="effect1_dropShadow"/>
<feBlend mode="normal" in="SourceGraphic" in2="effect1_dropShadow" result="shape"/>
</filter>
<filter id="filter1_d" x="0" y="435" width="521" height="192" filterUnits="userSpaceOnUse" color-interpolation-filters="sRGB">
<feFlood flood-opacity="0" result="BackgroundImageFix"/>
<feColorMatrix in="SourceAlpha" type="matrix" values="0 0 0 0 0 0 0 0 0 0 0 0 0 0 0 0 0 0 127 0"/>
<feOffset dx="6" dy="6"/>
<feGaussianBlur stdDeviation="2"/>
<feColorMatrix type="matrix" values="0 0 0 0 0 0 0 0 0 0 0 0 0 0 0 0 0 0 0.42 0"/>
<feBlend mode="normal" in2="BackgroundImageFix" result="effect1_dropShadow"/>
<feBlend mode="normal" in="SourceGraphic" in2="effect1_dropShadow" result="shape"/>
</filter>
<filter id="filter2_d" x="366" y="288" width="520" height="191" filterUnits="userSpaceOnUse" color-interpolation-filters="sRGB">
<feFlood flood-opacity="0" result="BackgroundImageFix"/>
<feColorMatrix in="SourceAlpha" type="matrix" values="0 0 0 0 0 0 0 0 0 0 0 0 0 0 0 0 0 0 127 0"/>
<feOffset dx="6" dy="6"/>
<feGaussianBlur stdDeviation="2"/>
<feColorMatrix type="matrix" values="0 0 0 0 0 0 0 0 0 0 0 0 0 0 0 0 0 0 0.42 0"/>
<feBlend mode="normal" in2="BackgroundImageFix" result="effect1_dropShadow"/>
<feBlend mode="normal" in="SourceGraphic" in2="effect1_dropShadow" result="shape"/>
</filter>
<filter id="filter3_d" x="366" y="0" width="520" height="192" filterUnits="userSpaceOnUse" color-interpolation-filters="sRGB">
<feFlood flood-opacity="0" result="BackgroundImageFix"/>
<feColorMatrix in="SourceAlpha" type="matrix" values="0 0 0 0 0 0 0 0 0 0 0 0 0 0 0 0 0 0 127 0"/>
<feOffset dx="6" dy="6"/>
<feGaussianBlur stdDeviation="2"/>
<feColorMatrix type="matrix" values="0 0 0 0 0 0 0 0 0 0 0 0 0 0 0 0 0 0 0.42 0"/>
<feBlend mode="normal" in2="BackgroundImageFix" result="effect1_dropShadow"/>
<feBlend mode="normal" in="SourceGraphic" in2="effect1_dropShadow" result="shape"/>
</filter>
<filter id="filter4_d" x="304" y="32" width="270" height="563" filterUnits="userSpaceOnUse" color-interpolation-filters="sRGB">
<feFlood flood-opacity="0" result="BackgroundImageFix"/>
<feColorMatrix in="SourceAlpha" type="matrix" values="0 0 0 0 0 0 0 0 0 0 0 0 0 0 0 0 0 0 127 0"/>
<feOffset dy="6"/>
<feGaussianBlur stdDeviation="2"/>
<feColorMatrix type="matrix" values="0 0 0 0 0 0 0 0 0 0 0 0 0 0 0 0 0 0 0.53 0"/>
<feBlend mode="normal" in2="BackgroundImageFix" result="effect1_dropShadow"/>
<feBlend mode="normal" in="SourceGraphic" in2="effect1_dropShadow" result="shape"/>
</filter>
<radialGradient id="paint0_radial" cx="0" cy="0" r="1" gradientUnits="userSpaceOnUse" gradientTransform="translate(347.47 107.082) rotate(90) scale(59.6619)">
<stop/>
<stop offset="1" stop-color="#FF2D55"/>
</radialGradient>
<radialGradient id="paint1_radial" cx="0" cy="0" r="1" gradientUnits="userSpaceOnUse" gradientTransform="translate(347.47 394.231) rotate(-90) scale(59.6619)">
<stop stop-color="#211314"/>
<stop offset="1" stop-color="#FF2D55"/>
</radialGradient>
<radialGradient id="paint2_radial" cx="0" cy="0" r="1" gradientUnits="userSpaceOnUse" gradientTransform="translate(490.851 250.276) rotate(90) scale(59.6619)">
<stop stop-color="#191419"/>
<stop offset="1" stop-color="#FF2D55"/>
</radialGradient>
<radialGradient id="paint3_radial" cx="0" cy="0" r="1" gradientUnits="userSpaceOnUse" gradientTransform="translate(490.851 542.027) rotate(90) scale(59.6619)">
<stop stop-color="#221913"/>
<stop offset="1" stop-color="#FF2D55"/>
</radialGradient>
</defs>
</svg>
